<?xml version="1.0" encoding="UTF-8" standalone="no"?>
<svg
   xmlns:dc="http://purl.org/dc/elements/1.1/"
   xmlns:cc="http://creativecommons.org/ns#"
   xmlns:rdf="http://www.w3.org/1999/02/22-rdf-syntax-ns#"
   xmlns:svg="http://www.w3.org/2000/svg"
   xmlns="http://www.w3.org/2000/svg"
   xmlns:sodipodi="http://sodipodi.sourceforge.net/DTD/sodipodi-0.dtd"
   xmlns:inkscape="http://www.inkscape.org/namespaces/inkscape"
   viewBox="0 0 400 300"
   version="1.1"
   id="svg313"
   sodipodi:docname="designer__flatline.svg"
   inkscape:version="1.0.1 (3bc2e813f5, 2020-09-07)">
  <metadata
     id="metadata319">
    <rdf:RDF>
      <cc:Work
         rdf:about="">
        <dc:format>image/svg+xml</dc:format>
        <dc:type
           rdf:resource="http://purl.org/dc/dcmitype/StillImage" />
        <dc:title></dc:title>
      </cc:Work>
    </rdf:RDF>
  </metadata>
  <defs
     id="defs317" />
  <sodipodi:namedview
     pagecolor="#ffffff"
     bordercolor="#666666"
     borderopacity="1"
     objecttolerance="10"
     gridtolerance="10"
     guidetolerance="10"
     inkscape:pageopacity="0"
     inkscape:pageshadow="2"
     inkscape:window-width="2560"
     inkscape:window-height="1377"
     id="namedview315"
     showgrid="false"
     inkscape:zoom="3.6840263"
     inkscape:cx="177.30465"
     inkscape:cy="148.81957"
     inkscape:window-x="-8"
     inkscape:window-y="-8"
     inkscape:window-maximized="1"
     inkscape:current-layer="_232_designer_flatline" />
  <g
     id="_232_designer_flatline"
     data-name="#232_designer_flatline">
    <path
       d="m 317.75548,218.50648 c 0,0 41.77945,-108.98435 20.13483,-125.604794 C 316.24569,76.281257 225.46768,82.992865 220.49423,88.930551 215.52079,94.868225 186.23838,226.05546 186.23838,226.05546 Z"
       fill="#231f20"
       id="path180"
       style="stroke-width:1.26873" />
    <path
       d="m 186.17495,226.7152 a 0.65974234,0.65974234 0 0 1 -0.48213,-0.21568 0.60899293,0.60899293 0 0 1 -0.12687,-0.54556 c 1.19262,-5.36676 29.42197,-131.4156 34.44617,-137.404035 2.75315,-3.28602 26.986,-6.343675 52.91894,-6.686233 15.22483,-0.203001 52.13233,0.418683 65.35256,10.555879 9.19833,7.054168 8.6147,30.449649 -1.72548,69.678939 -7.61242,29.01597 -18.10485,56.35722 -18.20635,56.62366 a 0.62168028,0.62168028 0 0 1 -0.55825,0.406 l -131.58053,7.6124 z M 277.72689,83.094365 h -4.77046 c -26.64343,0.35524 -49.79785,3.641271 -52.01814,6.242175 -3.8062,4.580137 -23.80147,90.49889 -34.0021,136.04648 l 130.33717,-7.5109 C 319.95039,210.77988 357.87289,109.04 337.47163,93.396494 328.88229,86.811761 307.22497,83.094365 277.72689,83.094365 Z m 40.02859,135.412115 z"
       fill="#231f20"
       id="path182"
       style="stroke-width:1.26873" />
    <path
       d="m 148.11289,124.34095 -18.82804,63.19571 c 0,0 38.83599,5.0115 38.83599,3.57782 0,-1.43366 7.61241,-69.53937 7.61241,-69.53937 z"
       fill="#fff"
       id="path184"
       style="fill:#ffebe2;fill-opacity:1;stroke-width:1.26873" />
    <path
       d="m 166.16699,191.93917 c -6.55936,0 -25.17171,-2.25835 -36.95826,-3.80621 a 0.64705498,0.64705498 0 0 1 -0.53287,-0.81199 l 18.82804,-63.1957 a 0.63436763,0.63436763 0 0 1 0.54555,-0.45675 l 27.63305,-2.76584 a 0.62168028,0.62168028 0 0 1 0.50749,0.19031 0.58361822,0.58361822 0 0 1 0.17763,0.50749 c -2.62628,23.4716 -7.61241,68.19452 -7.61241,69.47595 a 0.81199057,0.81199057 0 0 1 -0.25375,0.54555 5.2398767,5.2398767 0 0 1 -2.33447,0.31719 z m 1.26873,-0.85006 z m -37.37693,-4.08532 c 13.49934,1.72547 34.45884,4.12339 37.40231,3.7047 0.48212,-5.48093 6.66087,-60.79779 7.51091,-68.42289 l -26.41506,2.65166 z"
       fill="#231f20"
       id="path186"
       style="stroke-width:1.26873" />
    <path
       d="m 112.42337,108.64669 c 0.16493,0.17763 6.85116,-1.61128 10.30212,2.53748 3.45097,4.14876 -1.02767,7.85347 -11.92611,5.70931 -10.898429,-2.14417 1.62399,-8.24679 1.62399,-8.24679 z"
       fill="#ffffff"
       id="path188"
       style="stroke-width:1.26873" />
    <path
       d="m 116.54675,118.14953 a 30.995202,30.995202 0 0 1 -5.87424,-0.62169 c -3.14646,-0.62168 -4.77045,-1.63666 -4.96076,-3.12109 -0.36793,-2.86734 5.29064,-5.77274 6.43249,-6.34367 a 0.63436763,0.63436763 0 0 1 0.406,0 h 0.41868 c 1.77622,-0.21568 7.18105,-0.90081 10.25138,2.77853 1.37023,1.62398 1.66204,3.28602 0.85005,4.68164 -1.05305,1.66203 -3.78083,2.62628 -7.5236,2.62628 z m -3.98383,-8.88115 c -2.47403,1.26873 -5.73468,3.5017 -5.55706,4.91 0,0.46943 0.65974,1.35755 3.9204,2.00461 7.37135,1.44635 11.07605,0.10147 12.01492,-1.48443 a 2.8039049,2.8039049 0 0 0 -0.72318,-3.17184 c -2.61359,-3.12108 -7.3206,-2.53747 -9.08414,-2.30909 -0.24106,0.0508 -0.41869,0.0508 -0.57094,0.0508 z"
       fill="#231f20"
       id="path190"
       style="stroke-width:1.26873" />
    <path
       d="m 95.663373,95.388408 c 0,0 -1.370234,-1.573231 -0.507495,-2.67703 a 1.8650409,1.8650409 0 0 1 3.019591,0.279126 c 0,0 -2.156851,0.773922 -2.512096,2.397904 z"
       fill="#ffffff"
       id="path192"
       style="stroke-width:1.26873" />
    <path
       d="m 95.663373,96.035466 a 0.65974234,0.65974234 0 0 1 -0.494807,-0.215682 c -0.634368,-0.735877 -1.471733,-2.309108 -0.520181,-3.501713 a 2.2837235,2.2837235 0 0 1 1.814291,-0.900798 2.7785302,2.7785302 0 0 1 2.207599,1.154548 0.63436763,0.63436763 0 0 1 0.126874,0.596297 0.64705498,0.64705498 0 0 1 -0.405995,0.444058 c -0.507495,0.177626 -1.865041,0.888116 -2.093414,1.915789 a 0.64705498,0.64705498 0 0 1 -0.469432,0.494808 z m 0.824678,-3.311406 v 0 a 1.0403629,1.0403629 0 0 0 -0.799303,0.393308 0.97692615,0.97692615 0 0 0 0,0.900809 4.9861295,4.9861295 0 0 1 1.370234,-1.167241 1.0276756,1.0276756 0 0 0 -0.558245,-0.07614 z"
       fill="#231f20"
       id="path194"
       style="stroke-width:1.26873" />
    <path
       d="m 98.657588,92.927061 a 3.4255853,3.4255853 0 0 0 -3.095714,2.816598 l 27.214366,35.410401 a 7.6124115,7.6124115 0 0 1 6.50861,-6.78773 z"
       fill="#fff"
       id="path196"
       style="fill:#bfd8bd;fill-opacity:1;stroke-width:1.26873" />
    <path
       d="m 122.76355,131.80112 a 0.64705498,0.64705498 0 0 1 -0.50749,-0.25375 L 95.041693,96.136967 a 0.65974234,0.65974234 0 0 1 -0.114187,-0.570934 4.1360769,4.1360769 0 0 1 3.730082,-3.298713 0.65974234,0.65974234 0 0 1 0.469433,0.203001 l 30.627269,31.439269 a 0.63436763,0.63436763 0 0 1 0.15225,0.65974 0.64705498,0.64705498 0 0 1 -0.50749,0.44405 6.9526692,6.9526692 0 0 0 -5.97575,6.19143 0.64705498,0.64705498 0 0 1 -0.46943,0.57093 z M 96.285053,95.616783 122.43369,129.63158 a 8.1199057,8.1199057 0 0 1 5.56974,-5.64588 L 98.416529,93.612176 a 2.7912175,2.7912175 0 0 0 -2.131476,2.004607 z"
       fill="#231f20"
       id="path198"
       style="stroke-width:1.26873" />
    <path
       d="m 122.77624,131.15406 9.28714,4.82119 1.15455,-1.07842 -3.93308,-10.5305 c 0,0 -7.23179,-0.72319 -6.50861,6.78773 z"
       fill="#fff"
       id="path200"
       style="fill:#262626;fill-opacity:1;stroke-width:1.26873" />
    <path
       d="m 132.06338,136.62231 a 0.60899293,0.60899293 0 0 1 -0.30449,-0.0761 l -9.28715,-4.82119 a 0.64705498,0.64705498 0 0 1 -0.35524,-0.52018 6.7496716,6.7496716 0 0 1 1.63667,-5.68394 7.6124115,7.6124115 0 0 1 5.59513,-1.81429 0.65974234,0.65974234 0 0 1 0.55824,0.43137 l 3.92039,10.5305 a 0.64705498,0.64705498 0 0 1 -0.16494,0.71049 l -1.15455,1.07843 a 0.67242969,0.67242969 0 0 1 -0.44406,0.16494 z m -8.66545,-5.88693 8.55127,4.44057 0.50749,-0.45675 -3.62858,-9.71851 a 6.2041155,6.2041155 0 0 0 -4.16145,1.44636 5.3286881,5.3286881 0 0 0 -1.26873,4.28833 z"
       fill="#231f20"
       id="path202"
       style="fill:#1e1e1e;fill-opacity:1;stroke-width:1.26873" />
    <polygon
       points="148.09,140.55 148.75,139.8 147.6,138.2 146.69,139.05 "
       fill="#ffffff"
       id="polygon204"
       transform="matrix(1.2687353,0,0,1.2687353,-54.047388,-40.442391)" />
    <path
       d="m 133.83961,138.5381 a 0.60899293,0.60899293 0 0 1 -0.46943,-0.21568 l -1.78891,-1.90311 a 0.69780439,0.69780439 0 0 1 -0.17763,-0.46943 0.67242969,0.67242969 0 0 1 0.21569,-0.45674 l 1.15454,-1.07843 a 0.65974234,0.65974234 0 0 1 0.97694,0.10148 l 1.45904,2.02998 a 0.64705498,0.64705498 0 0 1 0,0.81199 l -0.83737,0.95155 a 0.62168028,0.62168028 0 0 1 -0.48212,0.22838 z m -0.85004,-2.53747 0.83736,0.9008 v 0 l -0.72318,-1.0023 z"
       fill="#231f20"
       id="path206"
       style="stroke-width:1.26873" />
    <path
       d="m 114.14885,133.93259 c 1.4971,-3.03228 5.25256,-9.46476 6.1153,-12.25599 2.38522,-7.6124 -11.58355,-14.74269 -16.10025,-14.74269 -4.516699,0 -13.956089,15.78306 -13.956089,24.22015 0,8.43709 31.274329,73.04109 31.274329,73.04109 l 30.00559,-13.72771 z"
       fill="#fff"
       id="path208"
       style="fill:#ffebe2;fill-opacity:1;stroke-width:1.26873" />
    <path
       d="m 121.5202,204.85489 a 0.64705498,0.64705498 0 0 1 -0.58362,-0.36793 c -1.26874,-2.63897 -31.350449,-64.85774 -31.350449,-73.3329 0,-8.47515 9.54089,-24.87989 14.577769,-24.87989 3.47633,0 11.55818,3.7047 15.22482,8.62739 a 7.6124115,7.6124115 0 0 1 1.56054,6.97804 69.704315,69.704315 0 0 1 -4.23758,8.69084 c -0.67242,1.26873 -1.26873,2.4106 -1.75084,3.3114 l 37.16125,56.20497 a 0.68511704,0.68511704 0 0 1 0.0888,0.54556 0.65974234,0.65974234 0 0 1 -0.35524,0.406 l -30.01827,13.75308 a 0.4821194,0.4821194 0 0 1 -0.31718,0.0635 z m -17.3563,-97.27394 c -3.97114,0 -13.258285,15.22483 -13.258285,23.57311 0,7.76465 27.823355,65.73318 30.919085,72.19103 l 28.73684,-13.16946 -36.95825,-55.82436 a 0.68511704,0.68511704 0 0 1 0,-0.65974 c 0.48211,-0.96424 1.17992,-2.27104 1.94116,-3.69202 a 69.285632,69.285632 0 0 0 4.13608,-8.46246 6.3436763,6.3436763 0 0 0 -1.35755,-5.81081 c -3.53977,-4.80851 -11.24099,-8.14529 -14.15908,-8.14529 z"
       fill="#231f20"
       id="path210"
       style="stroke-width:1.26873" />
    <path
       d="m 273.7938,146.72144 36.98364,-9.42671 c -1.26875,-1.78891 -16.18907,-49.150795 -31.92138,-56.902769 -13.76578,-9.1349 -46.41034,-15.22483 -75.24869,-13.15679 0,0 -7.61242,-0.279123 -20.95951,5.011503 -32.505,12.915731 -38.77255,57.892396 -38.77255,57.892396 l 25.37471,8.76696 c 0,0 -4.84657,58.17151 -9.4267,88.5831 0,0 56.10347,10.97455 137.78464,-2.53747 0.0635,-0.0253 -23.66191,-69.6282 -23.81416,-78.23022 z"
       fill="#68e1fd"
       id="path212"
       style="fill:#77bfa3;fill-opacity:1;stroke-width:1.26873" />
    <path
       d="m 270.74884,81.69876 c -4.89732,5.074933 -8.71621,11.164869 -14.12103,15.947995 -11.64698,10.302135 -26.8845,18.460105 -42.85787,17.470485 -18.82804,-1.16724 -35.10591,-14.0322 -39.19123,-32.771433 -2.53748,-11.748488 0.10147,-22.659611 9.18564,-30.95714 6.28024,-5.734684 14.32402,-9.236393 22.54542,-11.418617 21.83493,-5.84887 46.33421,-2.740469 64.97194,10.073758 a 23.19248,23.19248 0 0 1 7.51091,7.460163 c 4.65626,8.43709 -0.6978,17.115237 -6.73699,22.913365 -0.40599,0.393308 -0.83736,0.837366 -1.30679,1.281424 z"
       fill="#68e1fd"
       id="path214"
       style="fill:#77bfa3;fill-opacity:1;stroke-width:1.26873" />
    <path
       d="m 206.51277,94.9951 c -0.19031,0 -3.69202,4.262959 -3.86964,4.326389 1.99191,7.510921 4.09801,17.292861 12.59854,18.257101 17.24211,1.96654 19.85571,-21.022941 23.10367,-31.870627 -11.9388,3.349452 -20.36321,4.694319 -31.83257,9.287137 z"
       fill="#231f20"
       id="path216"
       style="stroke-width:1.26873" />
    <path
       d="m 217.25896,118.33983 a 19.678084,19.678084 0 0 1 -2.08073,-0.12687 c -8.48784,-0.96424 -10.88574,-10.14988 -12.82691,-17.49587 l -0.32987,-1.268731 a 0.63436763,0.63436763 0 0 1 0.25375,-0.67243 c 0.203,-0.190312 1.12917,-1.268732 1.8016,-2.055347 1.96654,-2.258347 1.99192,-2.27104 2.19491,-2.359847 v 0 a 157.84335,157.84335 0 0 1 21.56851,-6.610108 c 3.23526,-0.811991 6.57203,-1.649356 10.27675,-2.689723 a 0.63436763,0.63436763 0 0 1 0.62168,0.164933 0.65974234,0.65974234 0 0 1 0.15224,0.621683 c -0.48211,1.611288 -0.95155,3.514395 -1.45904,5.531685 -2.62629,10.860385 -6.64817,26.947945 -20.17289,26.960625 z m -13.95609,-18.815341 0.22837,0.875421 c 1.94117,7.35867 4.12339,15.69426 11.74849,16.49357 14.12102,1.61128 18.06679,-14.26058 20.95951,-25.856833 0.3933,-1.585925 0.77393,-3.108406 1.15454,-4.478636 -3.28601,0.900797 -6.34367,1.662049 -9.2237,2.397915 a 153.09828,153.09828 0 0 0 -21.3655,6.521289 c -0.25375,0.253751 -1.14186,1.268742 -1.8016,2.042664 -0.88812,1.14187 -1.38293,1.70011 -1.66204,2.00461 z m -0.6978,-0.19031 z m 4.09801,-3.806214 z"
       fill="#231f20"
       id="path218"
       style="stroke-width:1.26873" />
    <path
       d="m 223.20933,6.5008139 c -2.53747,-0.1015002 -4.16146,1.0023003 -6.34368,1.7889159 -4.25026,1.4971085 -6.22949,-2.0553506 -9.88344,-3.9457656 a 28.077111,28.077111 0 0 0 -34.8141,7.2952268 20.972194,20.972194 0 0 0 -4.73239,10.530503 c -0.53286,4.389824 0.69781,8.881147 -0.0635,13.220221 a 14.933014,14.933014 0 0 1 -9.2364,11.164871 35.588024,35.588024 0 0 0 12.07836,-1.141862 12.294045,12.294045 0 0 1 -9.18564,4.377137 22.837235,22.837235 0 0 0 14.12102,4.732382 l -8.94459,2.093413 c 7.61242,4.884631 16.88688,6.343677 25.85683,5.937681 17.8638,-0.926177 47.78058,-8.234092 47.26039,-31.375823 -0.2918,-8.868459 -5.16375,-24.1694067 -16.11294,-24.6769001 z"
       fill="#fff"
       id="path220"
       style="fill:#3f3f35;fill-opacity:1;stroke-width:1.26873" />
    <path
       d="m 188.99154,63.30209 c -6.83849,0 -15.59276,-1.268735 -23.1798,-6.115303 a 0.64705498,0.64705498 0 0 1 -0.27911,-0.647055 0.67242969,0.67242969 0 0 1 0.48211,-0.507494 l 4.97344,-1.15455 a 23.598476,23.598476 0 0 1 -10.40362,-4.542071 0.63436763,0.63436763 0 0 1 0.38061,-1.141862 11.634302,11.634302 0 0 0 7.14298,-2.600907 35.765647,35.765647 0 0 1 -10.07375,0.634368 0.63436763,0.63436763 0 0 1 -0.57093,-0.545557 0.62168028,0.62168028 0 0 1 0.40599,-0.685117 14.23521,14.23521 0 0 0 8.88115,-10.670063 28.267422,28.267422 0 0 0 0.0761,-6.876546 33.900606,33.900606 0 0 1 0,-6.343676 21.644624,21.644624 0 0 1 4.87195,-10.860373 28.698792,28.698792 0 0 1 35.60071,-7.4474769 21.162505,21.162505 0 0 1 3.07034,2.0426643 c 2.05535,1.5605437 3.67933,2.7912168 6.34367,1.865041 0.57094,-0.2029982 1.1038,-0.4313704 1.62399,-0.647055 a 10.885749,10.885749 0 0 1 4.99881,-1.1799246 v 0 c 10.98725,0.4821194 16.49356,15.3770712 16.67118,25.2985812 0.22838,10.517815 -5.519,18.802656 -17.08986,24.600777 -11.57087,5.79812 -25.37471,7.142979 -30.76683,7.422101 -1.06574,0.07613 -2.09341,0.101501 -3.15915,0.101501 z m -21.18789,-6.343676 c 8.19604,4.757758 17.59737,5.392125 24.1821,5.074941 5.27794,-0.279121 18.77729,-1.535169 30.25934,-7.295227 11.10143,-5.557061 16.60774,-13.435907 16.39206,-23.43354 -0.21569,-9.439391 -5.27794,-23.6111631 -15.4532,-24.10597 a 10.023009,10.023009 0 0 0 -4.45326,1.0784254 c -0.54556,0.2283718 -1.1038,0.4694319 -1.7001,0.6724289 -3.28602,1.1545497 -5.34138,-0.4059951 -7.51092,-2.0553506 a 19.576585,19.576585 0 0 0 -2.88002,-1.91579 27.404682,27.404682 0 0 0 -34.02748,7.1176043 20.388575,20.388575 0 0 0 -4.60552,10.149882 32.428873,32.428873 0 0 0 0,6.077242 29.586907,29.586907 0 0 1 -0.10147,7.181042 15.516632,15.516632 0 0 1 -7.3206,10.517815 35.524588,35.524588 0 0 0 9.36326,-1.268736 0.63436763,0.63436763 0 0 1 0.71049,0.266435 0.64705498,0.64705498 0 0 1 0,0.748554 12.979161,12.979161 0 0 1 -7.89153,4.465948 22.202868,22.202868 0 0 0 12.34479,3.603208 0.62168028,0.62168028 0 0 1 0.63437,0.558243 0.63436763,0.63436763 0 0 1 -0.48212,0.697805 z"
       fill="#231f20"
       id="path222"
       style="stroke-width:1.26873" />
    <path
       d="m 201.3744,77.473863 1.26873,21.847626 c 0,0 9.98494,11.418621 22.83724,4.402511 12.85228,-7.016111 12.35747,-18.142912 12.35747,-18.142912 l -8.43709,-41.018217 c 0,0 -11.65967,-2.689719 -14.62851,-25.653827 a 70.490931,70.490931 0 0 1 -34.4081,14.603143 c 0,0 0.22836,25.69189 4.75775,35.905207 4.52939,10.213326 16.25251,8.056469 16.25251,8.056469 z"
       fill="#fff"
       id="path224"
       style="fill:#ffebe2;fill-opacity:1;stroke-width:1.26873" />
    <path
       d="m 217.04328,106.62941 c -8.72891,0 -14.80614,-6.787741 -14.88227,-6.889241 a 0.59630558,0.59630558 0 0 1 -0.15225,-0.38061 l -1.26874,-21.175195 c -2.67703,0.266433 -12.21792,0.520172 -16.2398,-8.551284 -4.52939,-10.149882 -4.79582,-35.105904 -4.80851,-36.158955 a 0.64705498,0.64705498 0 0 1 0.54556,-0.634367 70.59243,70.59243 0 0 0 34.07822,-14.438208 0.63436763,0.63436763 0 0 1 0.64706,-0.114186 0.64705498,0.64705498 0 0 1 0.406,0.507494 c 1.4971,11.621615 5.27793,17.825731 8.18334,20.997568 a 13.32172,13.32172 0 0 0 5.96306,4.110703 0.64705498,0.64705498 0 0 1 0.46942,0.494807 l 8.44978,41.056276 c 0,0.215683 0.38062,11.697734 -12.68735,18.828038 a 18.016041,18.016041 0 0 1 -8.70352,2.34716 z m -13.79116,-7.612411 c 1.26874,1.382911 10.35288,10.441691 21.93643,4.110691 12.33211,-6.749666 12.02761,-17.470477 12.02761,-17.571977 L 228.8552,44.956179 c -2.1061,-0.697804 -11.64699,-4.910005 -14.55239,-24.956022 a 72.964965,72.964965 0 0 1 -33.29162,13.956088 c 0,3.806205 0.63437,25.958323 4.68163,35.105904 4.27564,9.617012 15.11064,7.802723 15.56738,7.726598 a 0.64705498,0.64705498 0 0 1 0.50751,0.114194 0.68511704,0.68511704 0 0 1 0.24105,0.469433 z"
       fill="#231f20"
       id="path226"
       style="stroke-width:1.26873" />
    <path
       d="m 224.643,56.057613 a 11.418618,11.418618 0 0 0 8.44977,-2.080726 12.217921,12.217921 0 0 0 4.54207,-11.063372 10.149882,10.149882 0 0 0 -1.26873,-4.427886 5.3921249,5.3921249 0 0 0 -3.59052,-2.689718 8.6781492,8.6781492 0 0 0 -5.30331,1.408295 c -2.46134,1.268736 -2.53747,2.677032 -3.88234,4.757758 0.15225,-0.19031 0.26645,-0.723179 0.41869,-0.913489"
       fill="#fff"
       id="path228"
       style="fill:#ffebe2;fill-opacity:1;stroke-width:1.26873" />
    <path
       d="m 226.3431,56.831541 a 12.306732,12.306732 0 0 1 -1.8016,-0.139561 0.64705498,0.64705498 0 0 1 -0.53287,-0.735866 0.62168028,0.62168028 0 0 1 0.72318,-0.520182 10.746188,10.746188 0 0 0 7.95497,-1.991914 11.570866,11.570866 0 0 0 4.27564,-10.505128 9.4520777,9.4520777 0 0 0 -1.12917,-4.161451 4.783132,4.783132 0 0 0 -3.14647,-2.359848 c -1.57323,-0.279122 -3.14646,0.444057 -4.89732,1.344859 a 5.3667502,5.3667502 0 0 0 -2.63897,2.841967 c -0.26643,0.482119 -0.55824,1.027675 -0.95155,1.623981 a 0.55824351,0.55824351 0 0 1 -0.10147,0.139561 0.62168028,0.62168028 0 0 1 -0.86274,0.1015 0.62168028,0.62168028 0 0 1 -0.15225,-0.862739 v 0 c 0,0 0,-0.164936 0.0888,-0.253748 a 2.5374705,2.5374705 0 0 1 0.3172,-0.647055 0.65974234,0.65974234 0 0 1 0.24105,-0.177623 l 0.24106,-0.456744 a 6.6735475,6.6735475 0 0 1 3.19721,-3.374836 c 1.49711,-0.773929 3.56515,-1.839666 5.68394,-1.471733 a 6.0518672,6.0518672 0 0 1 4.1107,2.994215 10.746188,10.746188 0 0 1 1.26873,4.707008 12.776164,12.776164 0 0 1 -4.79582,11.608928 11.989549,11.989549 0 0 1 -7.09223,2.29641 z"
       fill="#231f20"
       id="path230"
       style="stroke-width:1.26873" />
    <path
       d="m 202.03414,88.968608 a 15.377072,15.377072 0 0 0 12.19254,-7.612406 c 4.47864,-7.472859 2.68972,-12.255991 2.68972,-12.255991 0,0 -6.03918,7.701229 -15.542,8.322901 z"
       fill="#231f20"
       id="path232"
       style="stroke-width:1.26873" />
    <path
       d="m 202.03414,89.590291 a 0.62168028,0.62168028 0 0 1 -0.62168,-0.596308 l -0.67244,-11.41862 a 0.63436763,0.63436763 0 0 1 0.59631,-0.672422 c 9.09683,-0.583627 15.02182,-7.99304 15.08527,-8.069164 a 0.63436763,0.63436763 0 0 1 0.5963,-0.24106 0.64705498,0.64705498 0 0 1 0.4948,0.405996 c 0.0761,0.202997 1.83968,5.151062 -2.75315,12.801547 a 15.846504,15.846504 0 0 1 -12.68735,7.853463 z m 0,-11.545495 0.59631,10.238696 a 14.945701,14.945701 0 0 0 11.0253,-7.206416 c 3.03228,-5.074944 3.1084,-8.779652 2.88003,-10.555881 a 23.877598,23.877598 0 0 1 -14.50164,7.523601 z"
       fill="#231f20"
       id="path234"
       style="stroke-width:1.26873" />
    <path
       d="m 199.69967,42.748579 c 0,0 -4.75777,12.535105 -2.60092,14.032213 2.15686,1.497107 6.71162,-0.888115 6.71162,-0.888115"
       fill="#fff"
       id="path236"
       style="fill:#ffebe2;fill-opacity:1;stroke-width:1.26873" />
    <path
       d="m 198.97648,57.909967 a 3.8062058,3.8062058 0 0 1 -2.24566,-0.608994 c -2.38522,-1.649355 1.26874,-11.723114 2.35985,-14.780766 a 0.63436763,0.63436763 0 0 1 0.81199,-0.367933 0.63436763,0.63436763 0 0 1 0.36793,0.824679 c -2.2076,5.823494 -3.8062,12.560478 -2.81659,13.27097 1.5098,1.040362 4.88463,-0.304497 6.05187,-0.913489 a 0.64705498,0.64705498 0 0 1 0.86274,0.266433 0.63436763,0.63436763 0 0 1 -0.27913,0.850054 12.535104,12.535104 0 0 1 -5.113,1.459046 z"
       fill="#231f20"
       id="path238"
       style="stroke-width:1.26873" />
    <ellipse
       cx="185.87859"
       cy="102.06432"
       rx="1.8396662"
       ry="2.6009073"
       transform="rotate(-17.91)"
       fill="#231f20"
       id="ellipse240"
       style="stroke-width:1.26873" />
    <ellipse
       cx="190.65617"
       cy="46.581024"
       rx="1.8396662"
       ry="2.6009073"
       transform="rotate(-0.78)"
       fill="#231f20"
       id="ellipse242"
       style="stroke-width:1.26873" />
    <path
       d="m 201.20945,72.881042 a 5.8361822,5.8361822 0 0 1 -3.42557,-1.0023 c -3.99652,-2.918092 -4.28833,-9.363267 -4.30102,-9.642388 a 0.64705498,0.64705498 0 0 1 0.5075,-0.647055 c 16.41742,-3.590521 16.59505,-3.463648 16.88686,-3.247963 a 0.68511704,0.68511704 0 0 1 0.26643,0.456745 v 0 a 16.366685,16.366685 0 0 1 -1.02767,7.536287 10.378254,10.378254 0 0 1 -6.61011,6.216803 8.3863401,8.3863401 0 0 1 -2.29642,0.329871 z m -6.4071,-10.149881 c 0.15225,1.535168 0.83736,6.026492 3.7047,8.107218 a 5.4301869,5.4301869 0 0 0 4.60551,0.507493 9.1729559,9.1729559 0 0 0 5.83619,-5.468249 14.679267,14.679267 0 0 0 0.96423,-6.343676 c -2.18222,0.393309 -9.88345,2.042664 -15.11063,3.184526 z"
       fill="#231f20"
       id="path244"
       style="stroke-width:1.26873" />
    <path
       d="m 209.53236,66.13137 c -2.43597,5.886932 -8.53859,7.295228 -11.41862,5.252565 0.64706,-2.245662 1.82698,-4.580135 4.0219,-5.430188 a 10.708126,10.708126 0 0 1 7.39672,0.177623 z"
       fill="#231f20"
       id="path246"
       style="stroke-width:1.26873" />
    <path
       d="m 201.20945,72.868354 a 5.8615569,5.8615569 0 0 1 -3.42557,-0.989612 0.62168028,0.62168028 0 0 1 -0.22838,-0.685118 c 0.86274,-3.095714 2.34716,-5.074941 4.38982,-5.848869 a 11.418618,11.418618 0 0 1 7.80272,0.164935 0.64705498,0.64705498 0 0 1 0.36794,0.342559 0.67242969,0.67242969 0 0 1 0,0.494807 10.403629,10.403629 0 0 1 -6.61011,6.204115 8.4244021,8.4244021 0 0 1 -2.29642,0.317183 z m -2.30909,-1.788916 a 5.6712466,5.6712466 0 0 0 4.2122,0.253748 9.033395,9.033395 0 0 0 5.55706,-4.846569 9.9341971,9.9341971 0 0 0 -6.26755,0 c -1.56055,0.634367 -2.7024,2.182224 -3.50171,4.592821 z"
       fill="#231f20"
       id="path248"
       style="stroke-width:1.26873" />
    <polygon
       points="302.8,196.44 335.79,256.69 64.21,256.69 97.2,196.44 "
       fill="#fff"
       id="polygon256"
       style="fill:#edeec9;fill-opacity:1"
       transform="matrix(1.2687353,0,0,1.2687353,-54.047388,-40.442391)" />
    <path
       d="M 371.98123,285.86363 H 27.418104 a 0.64705498,0.64705498 0 0 1 -0.545557,-0.30449 0.65974234,0.65974234 0 0 1 0,-0.63436 L 68.74081,208.48347 a 0.62168028,0.62168028 0 0 1 0.558244,-0.32986 H 330.11296 a 0.62168028,0.62168028 0 0 1 0.55824,0.32986 l 41.86827,76.44131 a 0.65974234,0.65974234 0 0 1 0,0.63436 0.64705498,0.64705498 0 0 1 -0.55824,0.30449 z M 28.496528,284.5949 H 370.9028 L 329.74503,209.42234 H 69.6543 Z"
       fill="#d1d3d4"
       id="path258"
       style="stroke-width:1.26873" />
    <path
       d="m 73.320945,159.47223 0.558243,-2.41059 c 1.268735,-2.4106 2.677032,-4.03458 5.950369,-4.03458 H 204.00068 a 6.9526692,6.9526692 0 0 1 6.66086,4.99882 l 20.18557,69.34906 a 6.191428,6.191428 0 0 1 -3.43827,7.75197 l -2.19492,0.52019 z"
       fill="#ffffff"
       id="path260"
       style="stroke-width:1.26873" />
    <path
       d="m 225.21392,236.28146 a 0.7485538,0.7485538 0 0 1 -0.27911,-0.0635 L 73.041824,160.01779 a 0.62168028,0.62168028 0 0 1 -0.329872,-0.71049 l 0.558244,-2.4106 a 0.82467792,0.82467792 0 0 1 0,-0.16494 c 1.268735,-2.2964 2.72778,-4.36444 6.508612,-4.36444 H 203.94993 a 7.6124115,7.6124115 0 0 1 7.26985,5.45556 l 20.19826,69.43788 a 6.8257957,6.8257957 0 0 1 -3.8062,8.52589 l -2.27104,0.54556 z M 74.094873,159.12967 225.3408,234.97466 l 1.96654,-0.45674 c 3.05765,-1.19261 3.69202,-4.45326 2.96885,-6.96536 L 210.0906,158.20349 a 6.3436763,6.3436763 0 0 0 -6.05187,-4.54207 H 79.829557 c -2.803905,0 -4.009204,1.26873 -5.354063,3.62859 z"
       fill="#231f20"
       id="path262"
       style="stroke-width:1.26873" />
    <path
       d="M 225.21392,235.6471 H 98.50534 a 4.0092034,4.0092034 0 0 1 -3.806206,-2.89272 l -21.32744,-73.28215 a 1.8904156,1.8904156 0 0 1 1.814292,-2.41059 H 205.2821 l 22.03793,75.78155 a 2.1822246,2.1822246 0 0 1 -2.10611,2.80391 z"
       fill="#231f20"
       id="path264"
       style="stroke-width:1.26873" />
    <path
       d="M 225.21392,236.28146 H 98.50534 A 4.6816331,4.6816331 0 0 1 94.039391,232.932 L 72.711952,159.64986 a 2.5374705,2.5374705 0 0 1 2.423284,-3.20991 H 205.2821 a 0.60899293,0.60899293 0 0 1 0.5963,0.44406 l 22.05062,75.78155 a 2.8292797,2.8292797 0 0 1 -2.7151,3.6159 z M 75.135236,157.696 a 1.2687353,1.2687353 0 0 0 -1.205299,1.59861 l 21.314753,73.28215 a 3.4128978,3.4128978 0 0 0 3.26065,2.43597 h 126.70858 a 1.5859191,1.5859191 0 0 0 1.26875,-0.62168 1.5605444,1.5605444 0 0 0 0.24105,-1.37023 L 204.7746,157.696 Z"
       fill="#231f20"
       id="path266"
       style="stroke-width:1.26873" />
    <path
       d="m 203.96261,204.42352 -7.70122,32.74606 a 7.9549701,7.9549701 0 0 1 -7.76466,6.15336 h -80.14601 a 7.9803447,7.9803447 0 0 1 -7.76466,-9.80732 l 6.78774,-29.0921 h -6.63549 l -6.49592,27.59499 a 14.501644,14.501644 0 0 0 14.12102,17.76229 h 80.19676 a 14.463582,14.463582 0 0 0 14.05758,-11.10142 l 8.04379,-34.25586 z"
       fill="#ffffff"
       id="path268"
       style="stroke-width:1.26873" />
    <path
       d="M 188.49673,250.50399 H 108.35072 A 15.136012,15.136012 0 0 1 93.620709,231.90432 l 6.483241,-27.60767 a 0.63436763,0.63436763 0 0 1 0.62168,-0.48212 h 6.69892 a 0.64705498,0.64705498 0 0 1 0.4948,0.24105 0.62168028,0.62168028 0 0 1 0.11419,0.53288 l -6.83848,29.0921 a 7.3586645,7.3586645 0 0 0 7.15566,9.03339 h 80.19676 a 7.3332898,7.3332898 0 0 0 7.15567,-5.67125 l 7.70122,-32.74605 a 0.62168028,0.62168028 0 0 1 0.60899,-0.48212 h 6.69893 a 0.64705498,0.64705498 0 0 1 0.62168,0.77393 l -8.05648,34.25585 a 15.072574,15.072574 0 0 1 -14.78076,11.65968 z m -87.32705,-45.42072 -6.343673,27.11286 a 13.85459,13.85459 0 0 0 13.524713,17.03912 h 80.19676 a 13.816527,13.816527 0 0 0 13.49934,-10.69544 l 7.86616,-33.45654 h -5.39212 l -7.61242,32.25124 a 8.563963,8.563963 0 0 1 -8.38634,6.64817 h -80.17138 a 8.6147124,8.6147124 0 0 1 -8.386339,-10.59393 l 6.648179,-28.30548 z"
       fill="#231f20"
       id="path270"
       style="stroke-width:1.26873" />
    <path
       d="m 307.31379,137.64998 c 0,0 11.3425,50.36879 2.05535,63.23377 -9.28714,12.86497 -74.14489,10.835 -74.14489,10.835 0,0 -10.51782,12.62392 -19.65271,11.78655 -9.13489,-0.83736 -3.80621,-18.11754 6.93998,-25.31127 l -1.48441,-6.00111 57.18189,-9.17296 -7.61242,-36.19702"
       fill="#fff"
       id="path272"
       style="fill:#ffebe2;fill-opacity:1;stroke-width:1.26873" />
    <path
       d="m 216.4089,224.17773 q -0.46943,0 -0.95155,0 a 5.3540627,5.3540627 0 0 1 -4.97344,-4.25027 c -1.43366,-5.62049 3.15916,-16.34131 11.24099,-21.97449 l -1.37023,-5.56975 a 0.62168028,0.62168028 0 0 1 0.0761,-0.4948 0.62168028,0.62168028 0 0 1 0.43136,-0.27913 l 56.52216,-9.07145 -7.48553,-35.52459 a 0.63436763,0.63436763 0 0 1 0.49481,-0.74855 0.62168028,0.62168028 0 0 1 0.74854,0.48211 l 7.61242,36.19703 a 0.62168028,0.62168028 0 0 1 -0.10148,0.49479 0.62168028,0.62168028 0 0 1 -0.41868,0.26645 l -56.49678,9.07145 1.26873,5.32869 a 0.62168028,0.62168028 0 0 1 -0.25375,0.67243 c -7.76466,5.20181 -12.42092,15.66888 -11.08874,20.87069 a 4.0472655,4.0472655 0 0 0 3.80621,3.28603 c 8.69083,0.81199 19.03103,-11.41862 19.10715,-11.55818 a 0.63436763,0.63436763 0 0 1 0.50749,-0.22837 c 0.64706,0 64.70551,1.86504 73.66277,-10.58126 8.95727,-12.44629 -2.02997,-62.16802 -2.14416,-62.71358 a 0.64953793,0.64953793 0 1 1 1.26873,-0.27912 c 0.46944,2.06804 11.29175,50.74941 1.94117,63.74126 -9.1349,12.68735 -69.00652,11.26637 -74.42401,11.10143 -1.43367,1.67473 -10.47975,11.76118 -18.98028,11.76118 z"
       fill="#231f20"
       id="path274"
       style="stroke-width:1.26873" />
    <path
       d="m 239.27152,112.70665 a 0.58361822,0.58361822 0 0 1 -0.27913,-0.0761 0.63436763,0.63436763 0 0 1 -0.30449,-0.86274 c 9.21101,-19.031028 32.86024,-31.832571 33.1013,-31.959447 a 0.63436763,0.63436763 0 0 1 0.87542,0.266444 0.64705498,0.64705498 0 0 1 -0.26643,0.888116 c -0.22837,0.126824 -23.50966,12.68731 -32.53036,31.375777 a 0.67242969,0.67242969 0 0 1 -0.59631,0.36794 z"
       fill="#231f20"
       id="path276"
       style="stroke-width:1.26873" />
    <path
       d="m 200.1691,111.80585 a 0.68511704,0.68511704 0 0 1 -0.27913,0 C 177.7886,101.65596 175.11157,79.351595 175.0862,79.135912 a 0.65974234,0.65974234 0 0 1 0.58362,-0.723183 0.64705498,0.64705498 0 0 1 0.72317,0.570933 c 0,0.215682 2.63898,21.796878 24.10597,31.515388 a 0.65974234,0.65974234 0 0 1 0.32988,0.86274 0.67242969,0.67242969 0 0 1 -0.65974,0.44406 z"
       fill="#231f20"
       id="path278"
       style="stroke-width:1.26873" />
    <path
       d="m 99.469581,140.56807 a 0.65974234,0.65974234 0 0 1 0,-1.26873 c 9.566269,-0.29181 14.209829,-5.69662 14.260579,-5.74737 a 0.64705498,0.64705498 0 0 1 0.9135,-0.0888 0.65974234,0.65974234 0 0 1 0.0888,0.92618 c -0.203,0.24106 -5.07495,5.9123 -15.224829,6.2168 z"
       fill="#231f20"
       id="path280"
       style="stroke-width:1.26873" />
    <path
       d="m 270.52046,147.47 a 0.64705498,0.64705498 0 0 1 -0.63437,-0.49481 c 0,-0.22838 -5.97574,-23.61116 -6.80041,-37.63069 a 0.64705498,0.64705498 0 0 1 0.60899,-0.68511 0.65974234,0.65974234 0 0 1 0.69781,0.60899 c 0.82467,13.89265 6.71161,37.14857 6.76236,37.38963 a 0.65974234,0.65974234 0 0 1 -0.46944,0.79929 z"
       fill="#231f20"
       id="path282"
       style="stroke-width:1.26873" />
    <path
       d="m 168.26041,151.64413 v 0 a 0.64705498,0.64705498 0 0 1 -0.60899,-0.69781 l 3.14646,-49.29036 a 0.64705498,0.64705498 0 0 1 0.69779,-0.60899 0.63436763,0.63436763 0 0 1 0.60901,0.68512 l -3.19722,49.29036 a 0.64705498,0.64705498 0 0 1 -0.64705,0.62168 z"
       fill="#231f20"
       id="path284"
       style="stroke-width:1.26873" />
    <path
       d="m 280.59422,124.07452 a 0.63436763,0.63436763 0 0 1 -0.57093,-0.34256 l -6.14067,-11.41862 a 0.68511704,0.68511704 0 0 1 0,-0.52018 0.69780439,0.69780439 0 0 1 0.34255,-0.39331 l 19.03103,-8.99533 a 0.64705498,0.64705498 0 0 1 0.87543,0.30449 0.65974234,0.65974234 0 0 1 -0.3045,0.87543 l -18.44741,8.70352 5.55706,10.30213 18.68847,-5.70931 a 0.66230623,0.66230623 0 1 1 0.38062,1.26875 l -19.22134,5.93767 z"
       fill="#231f20"
       id="path286"
       style="stroke-width:1.26873" />
    <ellipse
       cx="297.0751"
       cy="259.42319"
       rx="31.325075"
       ry="9.4267025"
       fill="#ffffff"
       id="ellipse288"
       style="stroke-width:1.26873" />
    <path
       d="m 297.07509,269.48426 c -17.91454,0 -31.95944,-4.41519 -31.95944,-10.06107 0,-5.64587 14.0449,-10.06107 31.95944,-10.06107 17.91455,0 31.95945,4.4152 31.95945,10.06107 0,5.64588 -14.0449,10.06107 -31.95945,10.06107 z m 0,-18.8534 c -18.3586,0 -30.6907,4.54207 -30.6907,8.79233 0,4.25027 12.3321,8.79234 30.6907,8.79234 18.35861,0 30.69071,-4.54207 30.69071,-8.79234 0,-4.25026 -12.3321,-8.79233 -30.69071,-8.79233 z"
       fill="#d1d3d4"
       id="path290"
       style="stroke-width:1.26873" />
    <path
       d="m 273.46393,232.50063 -0.74856,0.13956 a 9.2998294,9.2998294 0 0 0 -5.78543,3.26066 8.0057195,8.0057195 0 0 0 -0.19031,8.46246 c 3.32409,5.98842 11.41862,7.61241 17.6608,8.23409 a 5.6078099,5.6078099 0 0 0 2.63897,-0.203 2.1568499,2.1568499 0 0 0 1.45905,-2.0046 2.2075993,2.2075993 0 0 0 -1.26874,-1.68742 6.7877336,6.7877336 0 0 0 -2.06804,-0.58362 c -3.88233,-0.63436 -7.96766,-1.1038 -11.52011,-2.89271 -2.06804,-1.05306 -4.96076,-3.45096 -3.45097,-6.03918 a 4.9353802,4.9353802 0 0 1 2.18223,-1.85236 c 3.56514,-1.70011 6.95267,-0.40599 10.46707,0.63438 a 1.9411649,1.9411649 0 0 0 0.7993,0.11418 1.4209835,1.4209835 0 0 0 1.02767,-1.58593 c -0.11418,-1.53516 -1.64936,-2.53746 -3.09571,-3.10839 a 16.239812,16.239812 0 0 0 -8.10722,-0.88812 z"
       fill="#fff"
       id="path292"
       style="fill:#bfd8bd;fill-opacity:1;stroke-width:1.26873" />
    <path
       d="m 285.45347,253.29521 a 10.327505,10.327505 0 0 1 -1.10379,-0.0635 c -9.5282,-0.9008 -15.46588,-3.69202 -18.16829,-8.56396 a 8.6147124,8.6147124 0 0 1 0.24106,-9.14758 9.9595718,9.9595718 0 0 1 6.16605,-3.50172 l 0.78661,-0.13955 v 0 a 16.77268,16.77268 0 0 1 8.47516,0.92618 c 1.26873,0.46942 3.33677,1.57323 3.50172,3.64126 a 2.0680385,2.0680385 0 0 1 -1.57325,2.27104 2.7531555,2.7531555 0 0 1 -1.06573,-0.13956 l -0.91349,-0.27912 c -3.12109,-0.95155 -6.06455,-1.83967 -9.09683,-0.39331 a 4.2502631,4.2502631 0 0 0 -1.91579,1.6113 2.1568499,2.1568499 0 0 0 -0.24107,1.77622 6.8131084,6.8131084 0 0 0 3.42559,3.36216 33.710296,33.710296 0 0 0 9.90882,2.61359 l 1.43368,0.22837 a 7.0541681,7.0541681 0 0 1 2.27104,0.64706 2.5374705,2.5374705 0 0 1 -0.31719,4.84656 5.074941,5.074941 0 0 1 -1.8143,0.30451 z m -11.88804,-20.16021 -0.72318,0.12687 a 8.779648,8.779648 0 0 0 -5.40481,3.00691 7.3713518,7.3713518 0 0 0 -0.13956,7.79003 c 2.47403,4.46594 8.09452,7.05417 17.16599,7.90422 a 5.1637525,5.1637525 0 0 0 2.33447,-0.15225 1.5732317,1.5732317 0 0 0 1.06573,-1.38292 1.5605444,1.5605444 0 0 0 -0.8881,-1.16723 5.9630558,5.9630558 0 0 0 -1.86505,-0.5075 l -1.43367,-0.22838 a 34.534974,34.534974 0 0 1 -10.27676,-2.74046 7.9676574,7.9676574 0 0 1 -4.07264,-4.1234 3.4382726,3.4382726 0 0 1 0.36794,-2.79121 5.4428742,5.4428742 0 0 1 2.46134,-2.10609 c 3.47634,-1.66205 6.80042,-0.65975 10.01032,0.31718 l 0.9135,0.27911 a 1.4590455,1.4590455 0 0 0 0.53286,0.0888 c 0.3045,0 0.49481,-0.52018 0.46943,-0.90081 -0.10147,-1.42098 -1.91579,-2.25834 -2.68972,-2.53746 a 15.503945,15.503945 0 0 0 -7.82809,-0.85006 z"
       fill="#231f20"
       id="path294"
       style="stroke-width:1.26873" />
    <path
       d="m 276.39471,226.08083 c 0,0 5.86155,29.25703 6.34368,31.02058 0.48211,1.76354 14.3367,9.00802 25.3747,1.89041 l 9.65508,-29.90408 z"
       fill="#fff"
       id="path296"
       style="fill:#bfd8bd;fill-opacity:1;stroke-width:1.26873" />
    <path
       d="m 297.31615,262.70922 a 27.468118,27.468118 0 0 1 -9.69314,-1.85236 c -2.43597,-0.93886 -5.2018,-2.46134 -5.50631,-3.59052 -0.46943,-1.76354 -6.10261,-29.85333 -6.34367,-31.05863 a 0.60899293,0.60899293 0 0 1 0.65974,-0.74856 l 41.37346,3.07034 a 0.62168028,0.62168028 0 0 1 0.55824,0.82468 l -9.65507,29.90409 a 0.62168028,0.62168028 0 0 1 -0.26644,0.32987 20.160203,20.160203 0 0 1 -11.12681,3.12109 z m -20.13482,-35.93058 c 0.95155,4.75775 5.74737,28.59729 6.16605,30.15783 0.17762,0.41868 2.46135,2.11879 6.50861,3.34946 3.80621,1.15455 11.08875,2.46135 17.76229,-1.70011 l 9.3379,-28.91447 z"
       fill="#231f20"
       id="path298"
       style="stroke-width:1.26873" />
    <ellipse
       cx="-214.56158"
       cy="306.19666"
       rx="8.982646"
       ry="20.743822"
       transform="rotate(-87.65)"
       fill="#231f20"
       id="ellipse300"
       style="stroke-width:1.26873" />
    <path
       d="m 298.74983,236.58596 c -0.67244,0 -1.34486,0 -2.01729,0 -11.98956,-0.48212 -21.20057,-5.07494 -20.9722,-10.47975 0.22837,-5.40481 9.78195,-9.21103 21.75881,-8.71622 11.97686,0.49481 21.18789,5.07495 20.95951,10.47976 -0.10148,2.66434 -2.53747,5.07494 -6.73698,6.64817 a 36.793323,36.793323 0 0 1 -12.99185,2.06804 z m -3.18453,-18.02873 c -10.06108,0 -18.37129,3.29872 -18.54891,7.61241 -0.17762,4.5167 8.88114,8.71621 19.7669,9.16027 a 37.465753,37.465753 0 0 0 14.56508,-2.04266 c 3.67933,-1.4083 5.83617,-3.42559 5.92499,-5.519 0.19031,-4.52939 -8.88115,-8.7289 -19.75421,-9.17296 z"
       fill="#231f20"
       id="path302"
       style="stroke-width:1.26873" />
    <rect
       x="27.418102"
       y="285.22925"
       width="344.55042"
       height="13.283658"
       fill="#fff"
       id="rect306"
       style="fill:#edeec9;fill-opacity:1;stroke-width:1.26873" />
    <path
       d="M 371.98123,299.14729 H 27.418104 a 0.63436763,0.63436763 0 0 1 -0.634369,-0.63437 v -13.28365 a 0.64705498,0.64705498 0 0 1 0.634369,-0.63437 H 371.98123 a 0.64705498,0.64705498 0 0 1 0.63436,0.63437 v 13.28365 a 0.63436763,0.63436763 0 0 1 -0.63436,0.63437 z M 28.052471,297.87856 H 371.34685 V 285.86363 H 28.052471 Z"
       fill="#d1d3d4"
       id="path308"
       style="stroke-width:1.26873" />
    <path
       d="m 317.75548,161.17234 v 0 a 0.64705498,0.64705498 0 0 1 -0.62169,-0.64706 c 0,-1.45905 0.92619,-35.85445 4.71971,-47.76788 3.79351,-11.91343 10.91112,-16.874184 11.20292,-17.064491 a 0.6351601,0.6351601 0 0 1 0.71049,1.053048 c -0.0761,0 -7.0161,4.808503 -10.70811,16.392063 -3.69202,11.58356 -4.64358,47.05738 -4.65626,47.41264 a 0.63436763,0.63436763 0 0 1 -0.64706,0.62168 z"
       fill="#ffffff"
       id="path310"
       style="stroke-width:1.26873" />
  </g>
</svg>
