<?xml version="1.0" encoding="UTF-8" standalone="no"?>
<svg
   xmlns:dc="http://purl.org/dc/elements/1.1/"
   xmlns:cc="http://creativecommons.org/ns#"
   xmlns:rdf="http://www.w3.org/1999/02/22-rdf-syntax-ns#"
   xmlns:svg="http://www.w3.org/2000/svg"
   xmlns="http://www.w3.org/2000/svg"
   xmlns:sodipodi="http://sodipodi.sourceforge.net/DTD/sodipodi-0.dtd"
   xmlns:inkscape="http://www.inkscape.org/namespaces/inkscape"
   id="e4e579b4-5122-4d29-876c-085905a2d49a"
   data-name="Layer 1"
   width="500"
   height="451"
   viewBox="0 0 500 451.00001"
   version="1.1"
   sodipodi:docname="newlogo.svg"
   inkscape:version="1.0.1 (3bc2e813f5, 2020-09-07)">
  <metadata
     id="metadata175">
    <rdf:RDF>
      <cc:Work
         rdf:about="">
        <dc:format>image/svg+xml</dc:format>
        <dc:type
           rdf:resource="http://purl.org/dc/dcmitype/StillImage" />
        <dc:title />
      </cc:Work>
    </rdf:RDF>
  </metadata>
  <defs
     id="defs173" />
  <sodipodi:namedview
     pagecolor="#ffffff"
     bordercolor="#666666"
     borderopacity="1"
     objecttolerance="10"
     gridtolerance="10"
     guidetolerance="10"
     inkscape:pageopacity="0"
     inkscape:pageshadow="2"
     inkscape:window-width="2560"
     inkscape:window-height="1377"
     id="namedview171"
     showgrid="false"
     inkscape:zoom="1.5908397"
     inkscape:cx="307.5408"
     inkscape:cy="117.39112"
     inkscape:window-x="-8"
     inkscape:window-y="-8"
     inkscape:window-maximized="1"
     inkscape:current-layer="e4e579b4-5122-4d29-876c-085905a2d49a"
     inkscape:document-rotation="0" />
  <path
     d="m 303.31902,130.1601 a 100.21207,100.21207 0 0 1 8.29386,-31.627773 q 1.87186,-4.181615 4.12054,-8.179111 a 0.61075899,0.61075899 0 0 0 -1.05395,-0.616069 101.59768,101.59768 0 0 0 -11.3052,31.188553 q -0.84878,4.58483 -1.27586,9.2344 c -0.0723,0.78184 1.14871,0.7769 1.22061,0 z"
     fill="#e6e6e6"
     id="path2"
     style="stroke-width:0.821133" />
  <circle
     cx="318.68973"
     cy="84.580338"
     r="7.7304778"
     fill="#e6e6e6"
     id="circle4"
     style="stroke-width:0.821133" />
  <path
     d="m 304.10977,130.36545 a 65.012059,65.012059 0 0 1 5.38061,-20.51842 q 1.21436,-2.7128 2.67319,-5.30615 a 0.39622969,0.39622969 0 0 0 -0.68375,-0.39968 65.910937,65.910937 0 0 0 -7.33421,20.23347 q -0.55065,2.97439 -0.8277,5.99078 c -0.047,0.50722 0.74522,0.50402 0.79187,0 z"
     fill="#e6e6e6"
     id="path6"
     style="stroke-width:0.821133" />
  <circle
     cx="314.08148"
     cy="100.79571"
     r="5.0151215"
     fill="#e6e6e6"
     id="circle8"
     style="stroke-width:0.821133" />
  <path
     d="m 303.11031,129.89202 a 65.012149,65.012149 0 0 1 -8.37753,-19.48776 q -0.71104,-2.8859 -1.15587,-5.82798 a 0.39622148,0.39622148 0 0 0 -0.78493,0.10539 65.910921,65.910921 0 0 0 6.66191,20.46466 q 1.39525,2.68393 3.03205,5.23271 c 0.27496,0.4288 0.89759,-0.0609 0.62437,-0.48704 z"
     fill="#e6e6e6"
     id="path10"
     style="stroke-width:0.821133" />
  <circle
     cx="292.78564"
     cy="100.44366"
     r="5.0151215"
     fill="#e6e6e6"
     id="circle12"
     style="stroke-width:0.821133" />
  <path
     d="m 287.71425,134.32919 v -9.85359 a 3.6992715,3.6992715 0 0 1 3.6951,-3.69511 h 22.99173 a 3.6992715,3.6992715 0 0 1 3.6951,3.69511 v 9.85359 a 3.6992715,3.6992715 0 0 1 -3.6951,3.69511 h -22.99173 a 3.6992715,3.6992715 0 0 1 -3.6951,-3.69511 z"
     fill="#f2f2f2"
     style="isolation:isolate;stroke-width:0.821133"
     id="path14" />
  <path
     d="m 313.57995,71.512486 h -9.85361 a 3.6992632,3.6992632 0 0 1 -3.69509,-3.695097 V 27.581856 a 3.6992715,3.6992715 0 0 1 3.69509,-3.695097 h 9.85361 a 3.6992715,3.6992715 0 0 1 3.6951,3.695097 v 40.235533 a 3.6992715,3.6992715 0 0 1 -3.6951,3.695097 z"
     fill="#f2f2f2"
     style="isolation:isolate;stroke-width:0.821133"
     id="path16" />
  <rect
     x="300.4418"
     y="31.687527"
     width="16.422667"
     height="3.2845333"
     fill="#cccccc"
     id="rect18"
     style="stroke-width:0.821133" />
  <rect
     x="300.4418"
     y="57.142658"
     width="16.422667"
     height="3.2845333"
     fill="#cccccc"
     id="rect20"
     style="stroke-width:0.821133" />
  <path
     d="m 338.21395,71.512486 h -9.8536 a 3.6992632,3.6992632 0 0 1 -3.69511,-3.695097 V 27.581856 a 3.6992715,3.6992715 0 0 1 3.69511,-3.695097 h 9.8536 a 3.6992715,3.6992715 0 0 1 3.69509,3.695097 v 40.235533 a 3.6992715,3.6992715 0 0 1 -3.69509,3.695097 z"
     fill="#f2f2f2"
     style="isolation:isolate;stroke-width:0.821133"
     id="path22" />
  <rect
     x="325.07581"
     y="31.687527"
     width="16.422667"
     height="3.2845333"
     fill="#cccccc"
     id="rect24"
     style="stroke-width:0.821133" />
  <rect
     x="325.07581"
     y="57.142658"
     width="16.422667"
     height="3.2845333"
     fill="#cccccc"
     id="rect26"
     style="stroke-width:0.821133" />
  <path
     d="m 362.84795,71.512486 h -9.85361 a 3.6992632,3.6992632 0 0 1 -3.69509,-3.695097 V 27.581856 a 3.6992715,3.6992715 0 0 1 3.69509,-3.695097 h 9.85361 a 3.6992715,3.6992715 0 0 1 3.6951,3.695097 v 40.235533 a 3.6992715,3.6992715 0 0 1 -3.6951,3.695097 z"
     fill="#f2f2f2"
     style="isolation:isolate;stroke-width:0.821133"
     id="path28" />
  <rect
     x="349.70981"
     y="31.687527"
     width="16.422667"
     height="3.2845333"
     fill="#cccccc"
     id="rect30"
     style="stroke-width:0.821133" />
  <rect
     x="349.70981"
     y="57.142658"
     width="16.422667"
     height="3.2845333"
     fill="#cccccc"
     id="rect32"
     style="stroke-width:0.821133" />
  <path
     d="m 375.98608,138.0243 h -9.8536 a 3.6992632,3.6992632 0 0 1 -3.6951,-3.69511 V 94.093659 a 3.6992715,3.6992715 0 0 1 3.6951,-3.695097 h 9.8536 a 3.6992715,3.6992715 0 0 1 3.6951,3.695097 v 40.235531 a 3.6992715,3.6992715 0 0 1 -3.6951,3.69511 z"
     fill="#f2f2f2"
     style="isolation:isolate;stroke-width:0.821133"
     id="path34" />
  <rect
     x="362.84796"
     y="98.199326"
     width="16.422667"
     height="3.2845333"
     fill="#cccccc"
     id="rect36"
     style="stroke-width:0.821133" />
  <rect
     x="362.84796"
     y="123.65447"
     width="16.422667"
     height="3.2845333"
     fill="#cccccc"
     id="rect38"
     style="stroke-width:0.821133" />
  <path
     d="m 400.62008,138.0243 h -9.85359 a 3.6992632,3.6992632 0 0 1 -3.69511,-3.69511 V 94.093659 a 3.6992715,3.6992715 0 0 1 3.69511,-3.695097 h 9.85359 a 3.6992715,3.6992715 0 0 1 3.6951,3.695097 v 40.235531 a 3.6992715,3.6992715 0 0 1 -3.6951,3.69511 z"
     fill="#f2f2f2"
     style="isolation:isolate;stroke-width:0.821133"
     id="path40" />
  <rect
     x="387.48196"
     y="98.199326"
     width="16.422667"
     height="3.2845333"
     fill="#cccccc"
     id="rect42"
     style="stroke-width:0.821133" />
  <rect
     x="387.48196"
     y="123.65447"
     width="16.422667"
     height="3.2845333"
     fill="#cccccc"
     id="rect44"
     style="stroke-width:0.821133" />
  <path
     d="m 425.25408,138.0243 h -9.8536 a 3.6992632,3.6992632 0 0 1 -3.6951,-3.69511 V 94.093659 a 3.6992715,3.6992715 0 0 1 3.6951,-3.695097 h 9.8536 a 3.6992715,3.6992715 0 0 1 3.69511,3.695097 v 40.235531 a 3.6992715,3.6992715 0 0 1 -3.69511,3.69511 z"
     fill="#f2f2f2"
     style="isolation:isolate;stroke-width:0.821133"
     id="path46" />
  <rect
     x="412.11597"
     y="98.199326"
     width="16.422667"
     height="3.2845333"
     fill="#cccccc"
     id="rect48"
     style="stroke-width:0.821133" />
  <rect
     x="412.11597"
     y="123.65447"
     width="16.422667"
     height="3.2845333"
     fill="#cccccc"
     id="rect50"
     style="stroke-width:0.821133" />
  <path
     d="m 311.11655,204.5361 h -9.85361 a 3.6992632,3.6992632 0 0 1 -3.6951,-3.6951 v -40.23554 a 3.6992715,3.6992715 0 0 1 3.6951,-3.69509 h 9.85361 a 3.6992715,3.6992715 0 0 1 3.6951,3.69509 V 200.841 a 3.6992715,3.6992715 0 0 1 -3.6951,3.6951 z"
     fill="#f2f2f2"
     style="isolation:isolate;stroke-width:0.821133"
     id="path52" />
  <rect
     x="297.97839"
     y="164.71114"
     width="16.422667"
     height="3.2845333"
     fill="#cccccc"
     id="rect54"
     style="stroke-width:0.821133" />
  <rect
     x="297.97839"
     y="190.16628"
     width="16.422667"
     height="3.2845333"
     fill="#cccccc"
     id="rect56"
     style="stroke-width:0.821133" />
  <path
     d="m 335.75054,204.5361 h -9.85359 a 3.6992632,3.6992632 0 0 1 -3.6951,-3.6951 v -40.23554 a 3.6992715,3.6992715 0 0 1 3.6951,-3.69509 h 9.85359 a 3.6992715,3.6992715 0 0 1 3.69511,3.69509 V 200.841 a 3.6992715,3.6992715 0 0 1 -3.69511,3.6951 z"
     fill="#f2f2f2"
     style="isolation:isolate;stroke-width:0.821133"
     id="path58" />
  <rect
     x="322.6124"
     y="164.71114"
     width="16.422667"
     height="3.2845333"
     fill="#cccccc"
     id="rect60"
     style="stroke-width:0.821133" />
  <rect
     x="322.6124"
     y="190.16628"
     width="16.422667"
     height="3.2845333"
     fill="#cccccc"
     id="rect62"
     style="stroke-width:0.821133" />
  <path
     d="m 360.38455,204.5361 h -9.85361 a 3.6992632,3.6992632 0 0 1 -3.69509,-3.6951 v -40.23554 a 3.6992715,3.6992715 0 0 1 3.69509,-3.69509 h 9.85361 a 3.6992715,3.6992715 0 0 1 3.6951,3.69509 V 200.841 a 3.6992715,3.6992715 0 0 1 -3.6951,3.6951 z"
     fill="#f2f2f2"
     style="isolation:isolate;stroke-width:0.821133"
     id="path64" />
  <rect
     x="347.2464"
     y="164.71114"
     width="16.422667"
     height="3.2845333"
     fill="#cccccc"
     id="rect66"
     style="stroke-width:0.821133" />
  <rect
     x="347.2464"
     y="190.16628"
     width="16.422667"
     height="3.2845333"
     fill="#cccccc"
     id="rect68"
     style="stroke-width:0.821133" />
  <path
     d="m 387.48195,71.512486 h -9.8536 a 3.6992632,3.6992632 0 0 1 -3.69511,-3.695097 V 27.581856 a 3.6992715,3.6992715 0 0 1 3.69511,-3.695097 h 9.8536 a 3.6992715,3.6992715 0 0 1 3.69509,3.695097 v 40.235533 a 3.6992715,3.6992715 0 0 1 -3.69509,3.695097 z"
     fill="#f2f2f2"
     style="isolation:isolate;stroke-width:0.821133"
     id="path70" />
  <rect
     x="374.34381"
     y="31.687527"
     width="16.422667"
     height="3.2845333"
     fill="#cccccc"
     id="rect72"
     style="stroke-width:0.821133" />
  <rect
     x="374.34381"
     y="57.142658"
     width="16.422667"
     height="3.2845333"
     fill="#cccccc"
     id="rect74"
     style="stroke-width:0.821133" />
  <path
     d="m 412.11595,71.512486 h -9.8536 a 3.6992632,3.6992632 0 0 1 -3.6951,-3.695097 V 27.581856 a 3.6992715,3.6992715 0 0 1 3.6951,-3.695097 h 9.8536 a 3.6992715,3.6992715 0 0 1 3.6951,3.695097 v 40.235533 a 3.6992715,3.6992715 0 0 1 -3.6951,3.695097 z"
     fill="#f2f2f2"
     style="isolation:isolate;stroke-width:0.821133"
     id="path76" />
  <rect
     x="398.97781"
     y="31.687527"
     width="16.422667"
     height="3.2845333"
     fill="#cccccc"
     id="rect78"
     style="stroke-width:0.821133" />
  <rect
     x="398.97781"
     y="57.142658"
     width="16.422667"
     height="3.2845333"
     fill="#cccccc"
     id="rect80"
     style="stroke-width:0.821133" />
  <path
     d="m 436.74995,71.512486 h -9.8536 a 3.6992632,3.6992632 0 0 1 -3.69511,-3.695097 V 27.581856 a 3.6992715,3.6992715 0 0 1 3.69511,-3.695097 h 9.8536 a 3.6992715,3.6992715 0 0 1 3.6951,3.695097 v 40.235533 a 3.6992715,3.6992715 0 0 1 -3.6951,3.695097 z"
     fill="#f2f2f2"
     style="isolation:isolate;stroke-width:0.821133"
     id="path82" />
  <rect
     x="423.61185"
     y="31.687527"
     width="16.422667"
     height="3.2845333"
     fill="#cccccc"
     id="rect84"
     style="stroke-width:0.821133" />
  <rect
     x="423.61185"
     y="57.142658"
     width="16.422667"
     height="3.2845333"
     fill="#cccccc"
     id="rect86"
     style="stroke-width:0.821133" />
  <path
     d="m 461.38396,71.512486 h -9.85361 a 3.6992632,3.6992632 0 0 1 -3.6951,-3.695097 V 27.581856 a 3.6992715,3.6992715 0 0 1 3.6951,-3.695097 h 9.85361 a 3.6992715,3.6992715 0 0 1 3.69509,3.695097 v 40.235533 a 3.6992715,3.6992715 0 0 1 -3.69509,3.695097 z"
     fill="#f2f2f2"
     style="isolation:isolate;stroke-width:0.821133"
     id="path88" />
  <rect
     x="448.24585"
     y="31.687527"
     width="16.422667"
     height="3.2845333"
     fill="#cccccc"
     id="rect90"
     style="stroke-width:0.821133" />
  <rect
     x="448.24585"
     y="57.142658"
     width="16.422667"
     height="3.2845333"
     fill="#cccccc"
     id="rect92"
     style="stroke-width:0.821133" />
  <path
     d="M 498.28646,72.744192 H 264.26345 a 0.82113372,0.82113372 0 0 1 0,-1.642264 h 234.02301 a 0.82113372,0.82113372 0 0 1 0,1.642264 z"
     fill="#cccccc"
     id="path94"
     style="stroke-width:0.821133" />
  <path
     d="M 498.28646,139.256 H 264.26345 a 0.821135,0.821135 0 0 1 0,-1.64227 h 234.02301 a 0.821135,0.821135 0 0 1 0,1.64227 z"
     fill="#cccccc"
     id="path96"
     style="stroke-width:0.821133" />
  <path
     d="M 498.28646,205.7678 H 264.26345 a 0.821135,0.821135 0 0 1 0,-1.64227 h 234.02301 a 0.821135,0.821135 0 0 1 0,1.64227 z"
     fill="#cccccc"
     id="path98"
     style="stroke-width:0.821133" />
  <path
     d="m 438.80601,196.67191 a 100.21207,100.21207 0 0 1 8.29387,-31.62778 q 1.87187,-4.18161 4.12055,-8.17911 a 0.61075899,0.61075899 0 0 0 -1.05396,-0.61606 101.59768,101.59768 0 0 0 -11.3052,31.18854 q -0.84877,4.58483 -1.27586,9.23441 c -0.0723,0.78183 1.14871,0.77689 1.2206,0 z"
     fill="#e6e6e6"
     id="path100"
     style="stroke-width:0.821133" />
  <circle
     cx="454.17673"
     cy="151.09213"
     r="7.7304778"
     fill="#e6e6e6"
     id="circle102"
     style="stroke-width:0.821133" />
  <path
     d="m 439.59677,196.87725 a 65.012059,65.012059 0 0 1 5.38062,-20.5184 q 1.21436,-2.71282 2.67319,-5.30617 a 0.39622969,0.39622969 0 0 0 -0.68375,-0.39967 65.910937,65.910937 0 0 0 -7.33421,20.23346 q -0.55065,2.97439 -0.82772,5.99079 c -0.047,0.50721 0.74522,0.50401 0.79187,0 z"
     fill="#e6e6e6"
     id="path104"
     style="stroke-width:0.821133" />
  <circle
     cx="449.56848"
     cy="167.30753"
     r="5.0151215"
     fill="#e6e6e6"
     id="circle106"
     style="stroke-width:0.821133" />
  <path
     d="m 438.59731,196.40384 a 65.012149,65.012149 0 0 1 -8.37753,-19.48777 q -0.71104,-2.8859 -1.15586,-5.82799 a 0.39622148,0.39622148 0 0 0 -0.78494,0.10539 65.910921,65.910921 0 0 0 6.6619,20.46468 q 1.39526,2.68392 3.03207,5.2327 c 0.27495,0.42879 0.89758,-0.0609 0.62436,-0.48704 z"
     fill="#e6e6e6"
     id="path108"
     style="stroke-width:0.821133" />
  <circle
     cx="428.27267"
     cy="166.95547"
     r="5.0151215"
     fill="#e6e6e6"
     id="circle110"
     style="stroke-width:0.821133" />
  <path
     d="m 423.20124,200.841 v -9.8536 a 3.6992715,3.6992715 0 0 1 3.69511,-3.6951 h 22.99173 a 3.6992715,3.6992715 0 0 1 3.6951,3.6951 v 9.8536 a 3.6992715,3.6992715 0 0 1 -3.6951,3.6951 h -22.99173 a 3.6992715,3.6992715 0 0 1 -3.69511,-3.6951 z"
     fill="#f2f2f2"
     style="isolation:isolate;stroke-width:0.821133"
     id="path112" />
  <path
     d="M 500.22602,367.47328 H 1.3084193 a 1.309495,1.309495 0 0 1 0,-2.61898 H 500.22602 a 1.309495,1.309495 0 0 1 0,2.61898 z"
     fill="#3f3d56"
     id="path114"
     style="stroke-width:1.30949" />
  <circle
     cx="173.70386"
     cy="200.40591"
     r="28.506132"
     fill="#2f2e41"
     id="circle116"
     style="stroke-width:1.05578" />
  <polygon
     points="219.556,358.003 220.612,376.067 173.405,378.826 172.69,366.588 "
     fill="#ffb8b8"
     id="polygon118"
     transform="matrix(1.0557826,0,0,1.0557826,-36.459246,-16.557413)" />
  <path
     d="m 149.01582,361.03379 1.4567,24.92025 -15.69051,0.91718 -2.37389,-40.61076 v 0 a 15.717288,15.717288 0 0 1 16.6077,14.77333 z"
     fill="#2f2e41"
     id="path120"
     style="stroke-width:1.05578" />
  <polygon
     points="145.768,362.666 157.257,348.688 193.789,378.714 186.004,388.185 "
     fill="#ffb8b8"
     id="polygon122"
     transform="matrix(1.0557826,0,0,1.0557826,-36.459246,-16.557413)" />
  <path
     d="m 151.19291,398.07596 15.85066,-19.28464 12.14217,9.98004 -25.8307,31.42679 v 0 a 15.717288,15.717288 0 0 1 -2.16213,-22.12219 z"
     fill="#2f2e41"
     id="path124"
     style="stroke-width:1.05578" />
  <path
     d="m 144.48778,336.78136 -5.61649,26.4778 a 4.2231305,4.2231305 0 0 0 4.0631,5.0989 l 55.21516,0.89056 a 4.2231305,4.2231305 0 0 0 4.22697,-4.95649 l -4.8297,-27.36838 a 4.2231305,4.2231305 0 0 0 -4.15888,-3.48922 H 148.619 a 4.2231305,4.2231305 0 0 0 -4.13122,3.34683 z"
     fill="#2f2e41"
     id="path126"
     style="stroke-width:1.05578" />
  <path
     d="m 153.64398,346.10392 c 0,0 -53.844913,-33.78505 -64.402733,-15.83674 -5.27892,8.97416 -2.63946,17.68436 1.31972,24.15103 a 36.562312,36.562312 0 0 0 15.205913,13.61023 l 43.65398,21.36257 15.83674,-16.89251 -10.55783,-9.50205 z"
     fill="#2f2e41"
     id="path128"
     style="stroke-width:1.05578" />
  <path
     d="m 181.09433,340.82501 c 0,0 69.68166,-20.05988 55.95649,17.94831 -13.72518,38.00817 -65.45852,23.22721 -65.45852,23.22721 l -5.27892,-15.83673 17.9483,-12.6694 z"
     fill="#2f2e41"
     id="path130"
     style="stroke-width:1.05578" />
  <circle
     cx="174.06133"
     cy="206.91518"
     r="25.931108"
     fill="#ffb8b8"
     id="circle132"
     style="stroke-width:1.05578;fill:#ffb8b8;fill-opacity:1" />
  <path
     d="m 175.42001,345.01516 a 139.35682,139.35682 0 0 1 -31.9449,-4.2087 l -0.3088,-0.0845 -14.47008,-66.56175 a 24.520235,24.520235 0 0 1 15.76585,-28.44632 84.947944,84.947944 0 0 1 54.16119,-1.08156 h 2.5e-4 a 24.778754,24.778754 0 0 1 16.50716,29.31344 l -16.16229,66.7205 -0.2276,0.10821 c -6.71668,3.18178 -15.11581,4.24067 -23.32078,4.24067 z"
     fill="#cccccc"
     id="path134"
     style="stroke-width:1.05578;fill:#1d3557;fill-opacity:1" />
  <path
     d="m 155.98289,350.18586 a 10.616665,10.616665 0 0 1 15.28283,-5.60854 l 28.49188,-24.73119 2.57784,19.43535 -27.45159,20.50551 a 10.674247,10.674247 0 0 1 -18.90096,-9.60113 z"
     fill="#ffb8b8"
     id="path136"
     style="stroke-width:1.05578" />
  <path
     d="m 183.1564,355.5802 a 4.7864223,4.7864223 0 0 1 -1.3687,-0.20106 4.7010095,4.7010095 0 0 1 -3.12765,-2.97351 l -3.43902,-9.7433 a 4.7214599,4.7214599 0 0 1 1.37488,-5.17583 l 38.81986,-23.30557 -15.30262,-68.2681 0.38921,-0.0938 c 0.15827,-0.0392 15.837,-3.60761 22.26191,13.52516 4.49918,11.99922 21.1489,38.08962 19.97429,55.72037 a 15.714913,15.714913 0 0 1 -13.00936,14.49329 l -43.69691,25.03566 a 4.7045674,4.7045674 0 0 1 -2.87589,0.9867 z"
     fill="#cccccc"
     id="path138"
     style="stroke-width:1.05578;fill:#1d3557;fill-opacity:1" />
  <path
     d="m 187.51036,347.86991 a 10.616686,10.616686 0 0 0 -15.28283,-5.60853 l -28.49188,-24.7312 -2.57783,19.43536 27.45158,20.5055 a 10.674247,10.674247 0 0 0 18.90096,-9.60113 z"
     fill="#ffb8b8"
     id="path140"
     style="stroke-width:1.05578" />
  <path
     d="m 163.19551,355.5802 a 4.7045674,4.7045674 0 0 1 -2.87582,-0.9867 l -46.86428,-22.9241 a 15.714913,15.714913 0 0 1 -13.00934,-14.49329 c -1.174623,-17.63076 18.64244,-45.83273 23.14164,-57.83195 6.42443,-17.13275 22.10338,-13.56535 22.26191,-13.52516 l 0.38922,0.0938 -18.47004,70.37967 41.98721,21.19402 a 4.7214599,4.7214599 0 0 1 1.37488,5.17581 l -3.43902,9.7433 a 4.7010095,4.7010095 0 0 1 -3.12764,2.97352 4.7877631,4.7877631 0 0 1 -1.36872,0.20105 z"
     fill="#cccccc"
     id="path142"
     style="stroke-width:1.05578;fill:#1d3557;fill-opacity:1" />
  <path
     d="m 219.10253,366.16371 h -93.96466 a 7.3991148,7.3991148 0 0 1 -7.39047,-7.39049 v -51.73334 a 7.3991148,7.3991148 0 0 1 7.39047,-7.39048 h 93.96466 a 7.3991042,7.3991042 0 0 1 7.39048,7.39048 v 51.73334 a 7.3991148,7.3991148 0 0 1 -7.39048,7.39049 z"
     fill="#edeec9"
     id="path144"
     style="stroke-width:1.05578;fill:#a8dadc;fill-opacity:1" />
  <circle
     cx="172.12018"
     cy="332.90665"
     r="6.3346963"
     fill="#ffffff"
     id="circle146"
     style="stroke-width:1.05578;fill:#f1faee;fill-opacity:1" />
  <path
     d="m 147.87049,205.85977 c -1.53685,-3.89827 0.98469,-8.54385 4.72535,-10.4322 3.74065,-1.88835 8.25459,-1.52923 12.25578,-0.28467 3.3625,1.04588 6.51392,2.66678 9.79437,3.94698 a 21.919653,21.919653 0 0 0 10.29691,1.8338 c 3.49915,-0.39518 6.98179,-2.35733 8.41361,-5.57453 1.48415,-3.33478 0.4747,-7.40437 -1.81085,-10.25038 a 19.847889,19.847889 0 0 0 -9.09209,-5.84354 c -7.71514,-2.71805 -16.62676,-2.79751 -23.78925,1.15344 -7.16248,3.95093 -12.03008,12.36343 -10.54959,20.40827"
     fill="#2f2e41"
     id="path148"
     style="stroke-width:1.05578" />
  <path
     d="m 34.483956,354.88641 a 128.84951,128.84951 0 0 1 10.663965,-40.66582 q 2.406772,-5.37656 5.298054,-10.51639 a 0.78529112,0.78529112 0 0 0 -1.35514,-0.79211 130.63014,130.63014 0 0 0 -14.535804,40.10106 q -1.09132,5.89502 -1.640453,11.87326 c -0.09301,1.00525 1.476965,0.9989 1.569399,0 z"
     fill="#e6e6e6"
     id="path150"
     style="stroke-width:1.05578" />
  <circle
     cx="54.247101"
     cy="296.28159"
     r="9.9395599"
     fill="#edeec9"
     id="circle152"
     style="stroke-width:1.05578;fill:#a8dadc;fill-opacity:1" />
  <path
     d="m 35.500707,355.1504 a 83.59064,83.59064 0 0 1 6.918194,-26.38181 q 1.561387,-3.48802 3.43709,-6.82247 a 0.50945736,0.50945736 0 0 0 -0.879139,-0.51387 84.74611,84.74611 0 0 0 -9.43005,26.01542 q -0.707997,3.82439 -1.064228,7.70273 c -0.0604,0.65217 0.958174,0.64805 1.018144,0 z"
     fill="#e6e6e6"
     id="path154"
     style="stroke-width:1.05578" />
  <circle
     cx="48.321972"
     cy="317.13074"
     r="6.448256"
     fill="#edeec9"
     id="circle156"
     style="stroke-width:1.05578;fill:#a8dadc;fill-opacity:1" />
  <path
     d="M 34.21566,354.54169 A 83.590534,83.590534 0 0 1 23.444133,329.48504 q -0.914223,-3.71057 -1.486152,-7.4934 a 0.5094468,0.5094468 0 0 0 -1.009243,0.1355 84.745655,84.745655 0 0 0 8.565629,26.31271 q 1.793975,3.4509 3.898498,6.72802 c 0.353528,0.55133 1.154086,-0.0783 0.802795,-0.62622 z"
     fill="#e6e6e6"
     id="path158"
     style="stroke-width:1.05578" />
  <circle
     cx="20.940619"
     cy="316.67807"
     r="6.448256"
     fill="#edeec9"
     id="circle160"
     style="stroke-width:1.05578;fill:#a8dadc;fill-opacity:1" />
  <path
     d="m 14.419969,360.24684 v -12.66939 a 4.7563853,4.7563853 0 0 1 4.751022,-4.75103 h 29.561913 a 4.7563853,4.7563853 0 0 1 4.751022,4.75103 v 12.66939 a 4.7563853,4.7563853 0 0 1 -4.751022,4.75102 H 19.170991 a 4.7563853,4.7563853 0 0 1 -4.751022,-4.75102 z"
     fill="#f2f2f2"
     style="isolation:isolate;stroke-width:1.05578;fill:#f1faee;fill-opacity:1"
     id="path162" />
</svg>
