<?xml version="1.0" encoding="UTF-8" standalone="no"?>
<svg
   xmlns:dc="http://purl.org/dc/elements/1.1/"
   xmlns:cc="http://creativecommons.org/ns#"
   xmlns:rdf="http://www.w3.org/1999/02/22-rdf-syntax-ns#"
   xmlns:svg="http://www.w3.org/2000/svg"
   xmlns="http://www.w3.org/2000/svg"
   xmlns:sodipodi="http://sodipodi.sourceforge.net/DTD/sodipodi-0.dtd"
   xmlns:inkscape="http://www.inkscape.org/namespaces/inkscape"
   id="e59edb86-a3bc-4694-8aac-31e565ca5cfc"
   data-name="Layer 1"
   width="166.98836"
   height="166.98833"
   viewBox="0 0 166.98836 166.98833"
   version="1.1"
   sodipodi:docname="undraw_male_avatar_323b (1).svg"
   inkscape:version="1.0.1 (3bc2e813f5, 2020-09-07)">
  <metadata
     id="metadata37">
    <rdf:RDF>
      <cc:Work
         rdf:about="">
        <dc:format>image/svg+xml</dc:format>
        <dc:type
           rdf:resource="http://purl.org/dc/dcmitype/StillImage" />
        <dc:title>male_avatar</dc:title>
      </cc:Work>
    </rdf:RDF>
  </metadata>
  <defs
     id="defs35" />
  <sodipodi:namedview
     pagecolor="#ffffff"
     bordercolor="#666666"
     borderopacity="1"
     objecttolerance="10"
     gridtolerance="10"
     guidetolerance="10"
     inkscape:pageopacity="0"
     inkscape:pageshadow="2"
     inkscape:window-width="2560"
     inkscape:window-height="1377"
     id="namedview33"
     showgrid="false"
     inkscape:zoom="1.4911243"
     inkscape:cx="173.69445"
     inkscape:cy="137.48024"
     inkscape:window-x="-8"
     inkscape:window-y="-8"
     inkscape:window-maximized="1"
     inkscape:current-layer="e59edb86-a3bc-4694-8aac-31e565ca5cfc"
     inkscape:document-rotation="0"
     fit-margin-top="0"
     fit-margin-left="0"
     fit-margin-right="0"
     fit-margin-bottom="0" />
  <title
     id="title2">male_avatar</title>
  <path
     d="m 166.98829,83.494148 a 83.21056,83.21056 0 0 1 -6.724,32.878902 l -0.27667,0.63733 a 83.632229,83.632229 0 0 1 -90.981439,48.7255 q -0.75219,-0.1334 -1.501908,-0.27667 a 82.748406,82.748406 0 0 1 -15.103051,-4.45384 q -1.189422,-0.478 -2.361554,-0.99057 c -0.533569,-0.2322 -1.067143,-0.47182 -1.595773,-0.71884 A 83.59647,83.59647 0 0 1 0,83.494148 C 0,37.382157 37.382157,0 83.494143,0 129.60613,0 166.98829,37.382157 166.98829,83.494148 Z"
     fill="#77bfa3"
     id="path4"
     style="stroke-width:0.247024" />
  <path
     d="m 69.006181,165.73588 q -0.75219,-0.1334 -1.501908,-0.27667 C 67.178201,155.99572 66.059182,136.57221 62.24265,116.22978 60.155306,105.0964 57.257716,93.68389 53.23863,83.481793 A 101.9231,101.9231 0 0 0 48.527883,73.146309 C 44.466808,65.476208 39.541148,59.019001 33.568106,54.644204 l 0.879407,-1.200539 q 7.45148,5.461705 13.393643,15.335258 1.782278,2.956877 3.423766,6.308992 1.760045,3.586793 3.357059,7.615753 1.018974,2.564111 1.968782,5.30608 4.13518,11.905326 7.030303,27.167702 0.641043,3.37188 1.2203,6.90927 c 2.991451,18.27237 3.893087,35.16635 4.164815,43.64916 z"
     opacity="0.2"
     id="path6"
     style="stroke-width:0.247024" />
  <path
     d="m 50.039668,160.0148 c -0.533569,-0.2322 -1.067143,-0.47182 -1.595773,-0.71884 -0.51628,-5.60745 -1.464852,-12.56365 -3.198961,-19.1666 a 62.881626,62.881626 0 0 0 -2.917356,-8.69525 c -1.978661,-4.6317 -4.5403,-8.56927 -7.852893,-10.99751 l 0.879407,-1.19807 c 3.468218,2.53941 6.143489,6.55355 8.211076,11.24948 2.329438,5.29126 3.883217,11.44957 4.918249,17.33368 0.768248,4.36986 1.252412,8.5915 1.556251,12.19311 z"
     opacity="0.2"
     id="path8"
     style="stroke-width:0.247024" />
  <circle
     cx="25.261116"
     cy="47.177082"
     r="7.4326015"
     opacity="0.2"
     id="circle10"
     style="stroke-width:0.247024" />
  <circle
     cx="27.654696"
     cy="111.15855"
     r="7.4326015"
     opacity="0.2"
     id="circle12"
     style="stroke-width:0.247024" />
  <path
     d="m 54.768823,59.661604 c -1.576131,8.892205 1.903211,16.94394 1.903211,16.94394 0,0 6.034747,-6.365381 7.610872,-15.257582 1.576126,-8.892206 -1.903215,-16.94394 -1.903215,-16.94394 0,0 -6.034747,6.365376 -7.610868,15.257582 z"
     opacity="0.2"
     id="path14"
     style="stroke-width:0.247024" />
  <path
     d="m 30.067195,80.769772 c 8.48156,3.101388 17.004337,1.111113 17.004337,1.111113 0,0 -5.228541,-7.018642 -13.710096,-10.120044 C 24.879876,68.659444 16.3571,70.649727 16.3571,70.649727 c 0,0 5.22854,7.018643 13.710095,10.120045 z"
     opacity="0.2"
     id="path16"
     style="stroke-width:0.247024" />
  <path
     d="m 28.628942,137.42766 c 5.944884,2.17383 11.9271,0.75574 11.9271,0.75574 0,0 -3.656354,-4.94255 -9.601238,-7.11639 -5.944884,-2.17384 -11.9271,-0.75575 -11.9271,-0.75575 0,0 3.656354,4.94257 9.601238,7.1164 z"
     opacity="0.2"
     id="path18"
     style="stroke-width:0.247024" />
  <circle
     cx="83.322739"
     cy="69.433228"
     r="32.5504"
     fill="#d0cde1"
     id="circle20"
     style="fill:#edddc9;fill-opacity:1;stroke-width:0.247024" />
  <path
     d="m 70.607729,94.354636 c 0,0 4.0688,19.326804 4.0688,21.361204 0,2.03439 19.326799,11.1892 19.326799,11.1892 l 17.292392,-3.0516 6.10322,-18.3096 c 0,0 -10.172,-15.258003 -10.172,-21.361202 z"
     fill="#d0cde1"
     id="path22"
     style="fill:#edddc9;fill-opacity:1;stroke-width:0.247024" />
  <path
     d="m 160.26429,116.37305 -0.27667,0.63733 a 83.632229,83.632229 0 0 1 -90.981439,48.7255 q -0.75219,-0.1334 -1.501908,-0.27667 a 82.748406,82.748406 0 0 1 -15.103051,-4.45384 q -1.189422,-0.478 -2.361554,-0.99057 c -0.533569,-0.2322 -1.067143,-0.47182 -1.595773,-0.71884 a 83.393539,83.393539 0 0 1 -13.648082,-7.97394 l -3.858512,-11.19266 2.168869,-1.65505 4.461256,-3.40646 4.760152,-3.63373 1.23759,-0.9461 18.677491,-14.25823 1.378397,-1.05232 9.708045,-7.41072 0.0023,-0.002 c 0,0 10.498521,17.10642 25.757202,12.02019 15.258677,-5.08622 14.925197,-19.67053 14.925197,-19.67053 z"
     fill="#2f2e41"
     id="path24"
     style="stroke-width:0.247024" />
  <path
     d="m 55.095113,43.208471 c 0,0 10.33463,-22.391705 30.142672,-17.224393 19.808045,5.167318 31.003895,12.918294 31.865115,20.66927 0.86123,7.750971 -0.4306,19.377426 -0.4306,19.377426 0,0 -2.15307,-15.932559 -15.93257,-12.487677 -13.779495,3.444881 -35.309982,0.861222 -35.309982,0.861222 l -3.444882,31.00389 c 0,0 -3.875488,-5.597924 -8.181582,-2.153047 -4.306095,3.444877 -12.487673,-33.156942 1.291829,-40.046691 z"
     fill="#2f2e41"
     id="path26"
     style="stroke-width:0.247024" />
  <path
     d="m 52.401222,161.00537 q -1.189422,-0.478 -2.361554,-0.99057 c -0.533569,-0.2322 -1.067143,-0.47182 -1.595773,-0.71884 A 83.700409,83.700409 0 0 1 26.807056,144.79564 c 2.27015,-3.09274 4.130245,-4.66628 4.130245,-4.66628 h 15.258672 l 2.287444,7.69233 z"
     fill="#2f2e41"
     id="path28"
     style="stroke-width:0.247024" />
  <path
     d="m 146.89782,114.69823 13.0898,2.31215 a 83.480394,83.480394 0 0 1 -14.02108,21.87892 z"
     fill="#2f2e41"
     id="path30"
     style="stroke-width:0.247024" />
</svg>
